<?xml version="1.0" standalone="no"?>
<!DOCTYPE svg PUBLIC "-//W3C//DTD SVG 20010904//EN"
 "http://www.w3.org/TR/2001/REC-SVG-20010904/DTD/svg10.dtd">
<svg version="1.0" xmlns="http://www.w3.org/2000/svg"
 width="959.000000pt" height="959.000000pt" viewBox="0 0 959.000000 959.000000"
 preserveAspectRatio="xMidYMid meet">
<metadata>
Created by potrace 1.11, written by Peter Selinger 2001-2013
</metadata>
<g transform="translate(0.000000,959.000000) scale(0.100000,-0.100000)"
fill="#000000" stroke="none">
<path d="M7689 9181 c-244 -5 -277 -8 -293 -23 -13 -13 -14 -18 -4 -19 7 -1 2
-5 -12 -9 -23 -7 -23 -8 -4 -9 13 -1 24 -9 27 -21 4 -14 14 -20 34 -20 15 0
37 -7 47 -15 10 -8 23 -12 27 -9 5 3 9 1 9 -4 0 -6 8 -8 18 -5 28 7 44 -20 36
-61 -3 -20 -10 -36 -15 -36 -5 0 -9 -10 -9 -23 0 -15 -13 -34 -35 -52 -20 -15
-34 -33 -32 -39 2 -6 -10 -20 -27 -33 -17 -12 -41 -30 -53 -38 -12 -9 -61 -24
-110 -34 -76 -16 -88 -21 -91 -40 -2 -11 -9 -22 -15 -22 -7 -1 -16 -2 -22 -4
-5 -1 -18 -3 -27 -3 -10 -1 -18 -8 -18 -16 0 -13 -67 -33 -77 -22 -11 10 8 24
42 30 30 6 35 11 35 36 0 16 -4 32 -10 35 -5 3 -10 16 -10 28 -2 87 3 143 14
159 9 13 12 39 9 81 -3 34 -1 79 5 100 8 27 7 37 -1 37 -8 0 -8 3 1 9 11 6 10
11 -3 25 -15 15 -229 16 -2896 16 -2792 0 -2882 -1 -2971 -20 -223 -45 -382
-130 -541 -288 -186 -184 -289 -412 -306 -677 -10 -155 -4 -3299 7 -3535 5
-107 10 -179 11 -160 2 34 2 35 13 10 11 -25 11 -25 15 -3 5 27 23 31 23 6 1
-17 1 -17 14 0 9 12 27 17 58 17 39 0 49 5 85 43 23 23 51 50 62 59 24 21 29
78 7 78 -13 0 -41 54 -37 73 0 4 -6 7 -14 7 -9 0 -15 9 -15 23 0 13 -6 29 -12
36 -10 11 -10 14 0 18 6 3 12 11 12 18 0 7 11 20 25 29 14 9 25 21 25 26 0 6
-11 10 -25 10 -31 0 -35 35 -6 45 11 3 28 23 38 43 15 31 25 39 61 46 31 6 41
13 38 23 -4 9 5 18 24 25 17 5 30 14 30 19 0 5 7 9 15 9 8 0 15 7 15 15 0 13
21 20 34 13 3 -2 16 8 29 20 24 23 25 23 31 4 4 -13 13 -18 24 -15 19 5 72
-35 72 -55 0 -7 5 -12 11 -12 6 0 33 -23 60 -51 47 -49 51 -51 91 -46 22 3 44
10 47 15 3 5 16 12 28 16 21 7 27 -2 72 -97 47 -98 86 -154 140 -201 13 -12
41 -37 61 -56 21 -19 52 -46 69 -60 17 -14 31 -30 31 -37 0 -7 9 -13 19 -13
10 0 35 -15 56 -34 20 -19 49 -47 65 -62 16 -15 28 -30 25 -34 -2 -3 3 -19 11
-34 8 -16 18 -42 22 -60 5 -17 18 -36 31 -42 41 -21 45 -31 27 -58 -9 -15 -23
-26 -30 -26 -10 0 -15 -19 -18 -62 -3 -36 -10 -64 -17 -66 -7 -2 -21 -14 -32
-25 -15 -17 -23 -19 -37 -11 -9 6 -38 22 -64 37 -91 50 -130 79 -135 98 -3 10
-9 17 -13 14 -9 -6 -112 107 -177 193 -24 31 -59 89 -79 127 -20 39 -41 72
-45 73 -5 2 -9 10 -9 17 0 10 -20 25 -35 25 -1 0 -6 -29 -10 -64 -5 -54 -3
-71 14 -104 14 -28 17 -43 10 -48 -7 -4 -9 -22 -6 -46 6 -47 -6 -55 -49 -33
-39 20 -97 19 -134 -3 -21 -14 -27 -21 -18 -30 6 -6 8 -18 4 -27 -5 -14 -14
-16 -42 -10 -20 3 -44 10 -53 15 -27 15 -153 50 -177 50 -13 0 -25 -4 -29 -10
-6 -10 29 -50 45 -50 6 0 10 -4 10 -10 0 -5 11 -10 25 -10 15 0 49 -21 92 -58
38 -31 84 -69 103 -83 19 -15 59 -48 87 -75 29 -27 60 -55 68 -62 22 -18 20
-46 -2 -37 -10 4 -26 9 -35 12 -10 3 -20 14 -23 24 -4 10 -10 19 -14 19 -4 0
-16 8 -27 17 -28 26 -123 70 -166 78 -21 3 -38 12 -38 19 0 17 -74 50 -95 42
-9 -3 -18 0 -21 8 -3 8 -22 22 -42 31 -20 9 -48 22 -62 30 -52 27 -65 26 -105
-5 -26 -21 -44 -28 -60 -24 -20 5 -22 2 -18 -21 3 -14 15 -31 27 -37 11 -6 39
-26 62 -45 23 -18 47 -33 54 -33 20 0 80 -49 80 -65 0 -8 7 -18 16 -23 21 -12
85 -67 142 -122 47 -45 61 -56 117 -86 39 -22 85 -70 85 -89 0 -21 -55 -8
-104 24 -21 14 -46 31 -55 36 -8 6 -21 16 -29 23 -7 6 -22 12 -31 12 -10 0
-24 7 -31 15 -7 8 -18 15 -25 15 -7 0 -15 7 -18 14 -3 8 -32 27 -64 42 -32 14
-76 35 -99 45 -22 11 -45 19 -52 19 -6 0 -24 11 -39 25 -45 40 -47 41 -73 40
-25 0 -25 -1 -22 -75 3 -75 17 -130 33 -130 5 0 9 -9 9 -20 0 -11 4 -20 9 -20
5 0 11 -17 14 -37 4 -22 24 -61 48 -93 23 -30 51 -70 61 -88 11 -17 26 -32 34
-32 8 0 14 -7 14 -15 0 -8 4 -15 8 -15 12 0 199 -187 206 -205 4 -11 -2 -15
-19 -15 -23 0 -25 -4 -25 -41 l0 -42 -20 26 c-11 14 -20 32 -20 41 0 9 -8 16
-20 16 -11 0 -20 6 -20 13 0 8 -3 7 -10 -3 -8 -13 -11 -12 -24 5 -9 11 -16 30
-16 43 0 18 5 22 31 22 18 0 28 4 24 10 -7 12 -111 8 -122 -5 -5 -4 0 -5 10
-2 15 6 17 -1 17 -48 0 -46 3 -55 18 -55 16 -1 16 -1 0 -11 -10 -5 -18 -17
-18 -24 0 -8 8 -15 18 -16 16 0 16 -1 0 -7 -9 -4 -46 -5 -82 -4 -57 3 -66 6
-66 23 0 18 10 23 38 20 7 -1 12 10 12 30 0 30 -2 31 -32 26 -18 -3 -41 -8
-50 -12 -13 -5 -18 0 -21 22 l-4 28 -2 -27 c0 -16 -5 -28 -11 -28 -6 0 -11 40
-12 98 -1 79 -3 68 -7 -58 -3 -85 -3 -243 0 -350 l5 -195 2 160 c2 144 10 183
25 120 4 -18 5 -18 6 3 1 21 21 33 21 12 0 -5 18 -10 40 -10 35 0 40 -3 46
-27 4 -16 14 -35 23 -44 25 -26 51 -59 51 -65 0 -4 14 -22 30 -41 17 -18 30
-45 30 -58 0 -21 -5 -25 -31 -25 -19 0 -43 10 -61 25 -33 28 -37 28 -91 16
-32 -8 -39 -6 -52 11 -14 21 -14 20 -21 -6 -7 -29 1 -60 15 -52 8 5 49 -5 96
-24 11 -4 54 -8 95 -9 95 -1 159 -17 234 -58 65 -37 169 -86 204 -97 36 -12
162 -87 162 -97 0 -5 19 -21 42 -36 23 -16 59 -44 79 -63 21 -19 62 -55 93
-80 30 -25 57 -53 59 -63 3 -10 15 -21 26 -24 22 -5 66 -86 57 -102 -3 -5 -8
-33 -11 -63 -8 -86 -15 -106 -46 -132 -16 -14 -29 -33 -29 -43 0 -10 -17 -32
-37 -48 -21 -17 -53 -45 -71 -63 -20 -18 -53 -37 -78 -43 -25 -6 -61 -26 -81
-45 -20 -19 -45 -34 -54 -34 -11 0 -31 -24 -54 -65 -24 -44 -42 -65 -55 -65
-10 0 -31 -12 -47 -26 -15 -14 -40 -28 -55 -31 -20 -4 -28 -12 -28 -27 0 -12
-9 -25 -22 -31 -13 -6 -23 -16 -23 -24 0 -8 -8 -19 -17 -24 -13 -9 -21 -7 -36
7 -13 11 -22 14 -27 7 -3 -6 -15 -11 -26 -11 -11 0 -22 -7 -26 -16 -3 -8 -16
-20 -29 -25 -13 -4 -24 -16 -24 -26 0 -15 -2 -16 -10 -3 -5 8 -10 10 -10 3 0
-6 -20 -21 -45 -33 -25 -12 -52 -34 -59 -49 -20 -38 -49 -68 -62 -64 -6 2 -17
-3 -24 -12 -7 -8 -21 -15 -31 -15 -22 0 -23 -13 -8 -61 27 -85 144 -282 181
-305 4 -3 15 2 24 10 21 22 68 22 60 0 -3 -9 -6 -18 -6 -20 0 -2 -15 -4 -32
-4 -18 0 -28 -4 -22 -8 6 -4 13 -14 16 -23 9 -23 143 -130 198 -158 l45 -23
-22 24 c-30 31 -29 36 5 31 25 -4 25 -3 9 10 -23 19 -22 30 3 22 21 -7 23 -3
34 48 6 23 10 27 28 21 16 -5 20 -3 15 9 -4 11 3 18 22 25 17 6 33 22 41 41 9
22 28 40 59 56 25 13 66 44 91 69 51 52 105 86 169 106 26 9 54 27 69 47 15
18 40 35 57 39 16 3 37 13 46 21 9 7 41 16 72 18 31 2 64 8 74 13 43 23 95 42
111 42 14 0 15 2 2 10 -12 8 -12 10 3 16 10 3 20 5 22 3 8 -8 -17 -99 -27 -99
-7 0 -9 -34 -5 -108 8 -121 16 -312 21 -481 2 -62 8 -117 13 -121 9 -9 846
-12 3054 -11 l1477 1 -9 38 c-12 53 -11 1976 1 2043 23 121 105 240 210 304
126 77 420 132 838 157 352 21 572 -11 857 -125 199 -79 206 -80 445 -81 210
0 309 10 431 44 l36 10 6 243 c7 301 0 5137 -8 5229 -22 251 -164 513 -375
690 -79 66 -192 133 -285 169 -179 70 -322 82 -846 70z m153 -467 c3 -3 4 -14
1 -24 -4 -16 -9 -17 -29 -8 -13 6 -24 15 -24 19 0 13 41 24 52 13z m-528 -46
c-7 -11 -34 -10 -34 1 0 6 9 9 19 8 11 0 17 -5 15 -9z m242 3 c-6 -10 -133 -8
-143 2 -3 4 28 7 71 7 42 0 75 -4 72 -9z m-4477 -1412 c9 -27 8 -34 -7 -45
-14 -11 -19 -10 -29 3 -16 20 -16 29 -3 54 15 27 26 24 39 -12z m3290 -435
c24 -5 31 -12 31 -30 0 -14 -6 -24 -15 -24 -8 0 -19 -9 -25 -20 -8 -14 -19
-19 -48 -17 -32 2 -37 5 -40 30 -2 18 1 27 11 27 8 0 17 9 20 20 5 21 16 24
66 14z m1073 -569 c7 0 14 -14 16 -32 2 -17 10 -37 18 -43 21 -18 17 -30 -11
-30 -14 0 -25 -4 -25 -10 0 -5 20 -10 44 -10 35 0 47 -5 60 -25 9 -13 16 -27
16 -30 0 -9 -38 -5 -42 5 -4 12 -67 20 -74 9 -5 -9 -34 -1 -32 9 4 13 -27 52
-39 52 -8 0 -13 15 -13 40 0 32 6 46 27 65 20 16 30 20 35 12 4 -7 13 -12 20
-12z m-1302 -5 c0 -11 -4 -20 -10 -20 -5 0 -10 9 -10 20 0 11 5 20 10 20 6 0
10 -9 10 -20z m-1890 -70 c-21 -14 -30 -12 -37 6 -9 23 19 37 37 18 13 -13 13
-16 0 -24z m1900 28 c0 -4 8 -3 19 3 23 15 60 -10 87 -61 13 -24 30 -39 54
-46 38 -13 54 -43 23 -45 -16 -1 -17 -2 0 -6 21 -5 23 -23 2 -23 -8 0 -15 -4
-15 -10 0 -5 7 -10 15 -10 8 0 15 -4 15 -10 0 -5 -7 -10 -15 -10 -8 0 -15 -4
-15 -9 0 -5 -10 -12 -22 -15 l-23 -6 24 -14 c21 -12 24 -21 26 -82 1 -38 -2
-81 -6 -97 -5 -19 -4 -25 3 -21 8 5 9 -14 4 -64 -5 -51 -4 -71 5 -74 20 -7 -8
-78 -32 -78 -10 0 -19 -4 -19 -10 0 -5 -9 -10 -20 -10 -11 0 -20 7 -20 15 0 9
-9 15 -25 15 -30 0 -32 -15 -5 -32 13 -8 20 -23 20 -43 l-1 -30 -19 24 c-11
13 -20 29 -20 37 0 8 -9 14 -20 14 -17 0 -20 -7 -21 -42 -2 -65 1 -82 17 -94
18 -14 18 -24 -1 -24 -8 0 -15 -6 -16 -12 0 -7 -6 -2 -12 12 -6 14 -18 31 -25
39 -10 10 -13 35 -12 80 5 123 0 212 -10 206 -6 -4 -11 11 -12 37 -3 66 2 112
13 119 5 3 12 40 15 82 6 79 3 85 -38 78 -5 0 -8 9 -8 22 0 18 2 19 10 7 7
-11 10 -5 11 25 1 22 1 44 0 48 -1 5 3 6 8 3 5 -3 12 1 15 10 10 27 7 44 -9
44 -9 0 -15 10 -15 26 0 14 4 23 9 20 12 -8 42 4 36 13 -2 4 2 8 10 8 8 0 15
-4 15 -9z m-1860 -124 c0 -7 -6 -14 -12 -17 -10 -3 -10 -9 -1 -25 13 -22 6
-37 -11 -23 -6 5 -24 11 -41 13 -21 2 -30 8 -29 21 1 9 -2 17 -7 17 -5 0 -9 9
-9 20 0 13 7 20 20 20 11 0 25 9 32 20 12 19 13 19 35 -7 13 -14 23 -32 23
-39z m4310 11 c14 -3 34 -10 45 -14 11 -5 32 -13 48 -20 31 -12 36 -45 10 -60
-17 -10 -17 -10 0 -11 13 0 17 -9 17 -40 0 -34 -3 -40 -21 -40 -20 0 -21 -4
-18 -87 4 -90 -11 -153 -36 -153 -8 0 -10 -12 -6 -42 12 -84 12 -84 -92 -81
-76 2 -98 -1 -125 -17 -18 -11 -37 -20 -42 -20 -15 0 -60 50 -60 65 0 8 -7 15
-17 15 -15 0 -15 1 0 18 12 13 17 37 17 80 0 34 -4 62 -8 62 -4 0 -3 35 2 77
7 58 7 78 -2 81 -14 4 -16 82 -2 82 6 0 10 5 10 12 0 9 -3 9 -12 0 -28 -28
-57 2 -38 38 9 18 13 18 48 4 20 -9 44 -25 53 -37 16 -19 18 -20 34 -4 9 9 28
17 41 17 32 0 74 28 74 49 0 23 21 42 40 37 8 -3 26 -7 40 -11z m-293 -21 c-3
-3 -12 -4 -19 -1 -8 3 -5 6 6 6 11 1 17 -2 13 -5z m-854 -66 c7 -4 17 -8 22
-8 6 0 4 4 -3 9 -11 7 81 8 191 2 9 -1 17 -8 17 -17 0 -9 9 -27 20 -41 11 -14
20 -39 20 -54 0 -18 8 -34 20 -41 21 -14 27 -54 9 -60 -6 -2 -12 -17 -13 -33
-1 -17 -12 -45 -26 -62 -20 -28 -30 -33 -67 -33 -39 0 -43 2 -43 24 0 13 -7
30 -16 37 -14 12 -14 14 3 21 10 5 -8 6 -43 3 l-62 -4 -4 37 c-3 20 -1 39 4
40 24 10 -1 108 -39 150 -7 7 -12 32 -12 55 2 34 3 37 6 12 3 -16 10 -33 16
-37z m-493 -83 c0 -34 -1 -35 -40 -35 -22 0 -40 5 -40 10 0 6 11 10 25 10 18
0 25 5 25 19 0 16 7 24 28 30 1 1 2 -15 2 -34z m-1655 -85 c0 -8 -22 -22 -49
-32 -27 -9 -52 -21 -55 -26 -8 -13 -99 -23 -106 -12 -7 11 7 20 65 41 25 9 63
24 85 33 45 17 60 16 60 -4z m1649 -17 c-4 -16 -4 -25 0 -22 4 4 29 -1 55 -11
47 -18 48 -18 64 1 20 23 47 25 47 4 0 -8 -9 -15 -20 -15 -22 0 -43 -39 -38
-69 2 -12 -5 -16 -32 -17 -66 -2 -72 -3 -66 -19 4 -12 -4 -15 -39 -15 l-45 0
0 44 c0 27 5 46 13 49 10 3 10 11 0 39 -20 53 -17 58 27 58 39 0 40 -1 34 -27z
m-1882 -58 c1 -6 -35 -21 -80 -35 -44 -14 -84 -28 -88 -32 -4 -5 -25 -8 -47
-8 -59 0 -170 -21 -187 -35 -30 -25 -40 -27 -40 -8 0 14 19 24 83 45 106 34
150 45 216 53 30 4 71 13 90 20 39 15 52 15 53 0z m2337 -37 l27 -23 -33 -28
c-31 -27 -32 -27 -52 -10 -23 19 -27 53 -9 71 18 18 37 15 67 -10z m111 -8 c0
-5 8 -10 18 -10 28 0 42 -21 42 -62 0 -33 -3 -38 -23 -38 -13 0 -32 -9 -41
-19 -24 -27 -69 -9 -85 34 -15 42 -14 47 8 40 14 -4 20 1 25 20 4 14 11 25 17
25 6 0 7 5 4 10 -3 6 3 10 14 10 12 0 21 -4 21 -10z m-2080 -20 c0 -5 -4 -10
-10 -10 -5 0 -10 5 -10 10 0 6 5 10 10 10 6 0 10 -4 10 -10z m2182 -117 c12
-25 -4 -79 -21 -69 -4 3 -21 10 -36 16 -26 10 -27 12 -10 24 13 9 15 15 7 20
-16 10 -15 27 1 21 7 -3 19 4 27 15 10 14 16 16 18 8 2 -7 8 -23 14 -35z
m-662 19 c0 -13 -42 -29 -62 -24 -10 2 -18 10 -18 18 0 10 12 14 40 14 22 0
40 -4 40 -8z m-1760 -51 c0 -5 -8 -11 -17 -15 -10 -3 -25 -9 -33 -14 -40 -25
-99 -52 -111 -52 -8 0 -27 -7 -42 -15 -15 -8 -45 -17 -65 -21 -20 -4 -48 -14
-62 -24 -32 -21 -70 -31 -70 -18 0 15 72 78 89 78 13 0 46 14 126 51 67 32
185 51 185 30z m-810 -131 c-56 -45 -80 -74 -80 -99 0 -25 -22 -41 -48 -35
-11 4 -35 0 -52 -7 -26 -12 -30 -19 -30 -51 0 -25 -5 -38 -13 -38 -7 0 -23
-13 -35 -30 -13 -16 -29 -30 -37 -30 -8 0 -15 -6 -15 -14 0 -7 -9 -16 -21 -19
-11 -3 -23 -15 -26 -26 -3 -12 -10 -21 -15 -21 -19 0 -38 -29 -38 -60 0 -17
-7 -38 -15 -46 -8 -9 -15 -27 -15 -42 0 -34 -15 -59 -24 -43 -4 6 -15 11 -24
11 -15 -1 -14 -3 3 -16 17 -13 18 -17 6 -35 -9 -15 -10 -24 -2 -32 8 -8 11 -8
11 0 0 22 30 41 97 63 38 12 76 23 86 24 10 0 23 12 30 26 7 14 26 31 42 39
17 8 36 23 43 33 11 15 42 26 42 14 0 -2 3 -11 6 -20 3 -9 1 -16 -5 -16 -21 0
-52 -38 -88 -108 -1 -2 -20 -8 -43 -13 -46 -11 -97 -44 -105 -69 -3 -10 -23
-25 -43 -34 -21 -10 -46 -28 -57 -42 -22 -30 -51 -31 -66 -1 -6 12 -20 31 -29
42 -10 11 -38 58 -61 104 -62 123 -99 154 -99 84 0 -21 16 -74 35 -118 19 -44
38 -96 41 -115 3 -19 23 -60 43 -90 76 -111 81 -141 64 -368 -5 -67 -7 -71
-19 -50 -32 56 -44 94 -50 154 -7 62 -8 64 -35 64 -29 0 -30 -2 -44 -96 -5
-30 -2 -45 9 -57 9 -8 19 -40 22 -71 6 -47 4 -56 -9 -56 -8 0 -25 15 -36 34
-12 18 -37 44 -56 57 -19 13 -35 27 -35 30 0 4 -11 10 -25 13 -16 4 -25 13
-25 26 0 14 -7 20 -23 20 -29 0 -67 34 -67 60 0 10 -7 26 -16 34 -8 9 -13 19
-11 23 2 5 1 116 -3 248 -6 192 -4 247 6 274 8 18 14 63 14 100 0 36 7 95 16
131 8 36 19 91 23 123 5 32 12 61 16 65 3 4 19 -8 33 -26 l27 -32 119 0 c127
0 155 -6 254 -51 34 -16 70 -29 80 -29 38 0 114 33 129 56 9 14 25 24 39 24
13 0 24 5 24 11 0 15 91 100 100 94 5 -3 21 6 36 20 15 14 36 25 48 25 20 -1
20 -2 -4 -20z m-160 -160 c0 -5 -4 -10 -10 -10 -5 0 -10 5 -10 10 0 6 5 10 10
10 6 0 10 -4 10 -10z m2007 -242 c-3 -8 -6 -5 -6 6 -1 11 2 17 5 13 3 -3 4
-12 1 -19z m-917 -738 c0 -33 3 -38 17 -33 13 5 15 2 8 -18 -12 -40 -8 -70 14
-90 15 -14 20 -28 17 -52 -2 -17 0 -40 5 -49 18 -34 -32 -153 -94 -222 -10
-12 -20 -31 -23 -43 -4 -13 -21 -32 -39 -43 -26 -16 -35 -30 -40 -61 -4 -22
-17 -52 -30 -67 -12 -15 -31 -45 -43 -67 -24 -48 -87 -115 -107 -115 -8 0 -15
-7 -15 -15 0 -8 -4 -15 -10 -15 -12 0 -12 -5 3 55 10 37 11 90 6 204 -7 139
-6 159 12 206 11 29 26 56 34 59 8 3 19 24 26 48 7 24 16 48 20 53 4 6 11 35
15 65 8 57 8 57 105 145 31 28 58 58 62 68 4 10 11 15 17 12 5 -3 10 -1 10 4
0 6 7 11 15 11 11 0 15 -11 15 -40z m-3306 -115 c3 -8 1 -15 -4 -15 -6 0 -10
7 -10 15 0 8 2 15 4 15 2 0 6 -7 10 -15z m-97 -101 c-3 -3 -12 -4 -19 -1 -8 3
-5 6 6 6 11 1 17 -2 13 -5z m1849 -39 c19 -15 35 -21 39 -15 14 23 33 8 41
-32 18 -96 5 -207 -27 -242 -20 -21 -21 -21 -35 -2 -8 11 -14 36 -14 57 0 21
-7 42 -16 50 -8 7 -24 30 -36 52 -16 31 -18 49 -13 91 11 77 12 78 61 41z
m-996 -64 c0 -9 -9 -30 -19 -47 -10 -17 -21 -40 -24 -50 -3 -12 -5 -7 -6 13 0
17 -6 33 -12 35 -7 2 -3 17 11 40 22 37 50 43 50 9z m2793 -163 c63 -130 87
-198 87 -255 1 -15 9 -46 20 -68 10 -22 16 -43 14 -47 -3 -4 0 -36 7 -70 6
-35 13 -70 14 -78 1 -8 5 -22 8 -30 4 -8 9 -34 11 -58 3 -23 12 -54 20 -70 8
-15 18 -45 22 -67 7 -39 7 -40 17 -14 17 45 88 74 87 36 -1 -14 -27 -68 -59
-120 -26 -42 -42 -44 -51 -6 -12 50 -40 28 -88 -68 -26 -51 -53 -93 -61 -93
-9 0 -11 8 -7 26 4 15 3 23 -3 20 -5 -3 -11 1 -15 9 -3 8 -18 15 -33 15 l-28
1 29 23 c28 23 29 26 16 58 -7 18 -22 47 -32 65 -14 24 -17 42 -12 68 7 37 27
47 38 18 6 -15 10 -13 31 12 24 30 29 75 11 103 -4 7 -5 26 -1 41 3 16 3 46
-1 66 l-7 38 -14 -34 c-11 -27 -16 -31 -23 -19 -5 8 -10 23 -10 33 0 22 -38
23 -54 1 -11 -14 -13 -14 -25 0 -11 14 -11 16 3 16 12 0 16 10 16 40 0 36 -2
40 -25 40 -19 0 -25 5 -25 21 0 11 -4 18 -9 14 -5 -3 -16 8 -24 24 -12 24 -13
33 -2 47 6 9 17 14 23 10 8 -5 12 0 12 13 0 16 -6 20 -22 18 -15 -1 -22 3 -20
11 1 8 -7 16 -18 19 -14 4 -20 14 -20 34 0 16 -4 29 -10 29 -5 0 -10 -7 -10
-15 0 -8 -4 -15 -10 -15 -14 0 -13 23 2 38 8 8 15 8 24 1 7 -6 20 -9 28 -7 13
3 13 7 -1 38 -10 19 -22 39 -28 43 -5 5 5 5 23 2 30 -6 32 -5 32 24 0 16 5 33
10 36 6 3 10 15 10 26 0 10 5 19 10 19 6 0 10 7 10 15 0 21 22 55 37 55 6 0
41 -60 76 -132z m-2863 51 c0 -10 5 -19 10 -19 6 0 10 -4 10 -10 0 -5 -9 -10
-21 -10 -14 0 -19 -5 -16 -14 4 -9 -3 -16 -19 -19 -21 -4 -24 -1 -24 24 0 30
37 82 52 73 4 -3 8 -14 8 -25z m2548 -377 c0 -68 4 -108 14 -128 9 -16 13 -35
11 -42 -3 -7 -1 -18 5 -25 5 -7 15 -48 22 -92 7 -44 20 -93 28 -109 9 -18 12
-43 8 -66 -6 -39 15 -118 35 -131 23 -14 -10 -63 -80 -119 -17 -14 -31 -29
-31 -35 -1 -12 -36 -55 -45 -55 -4 0 -5 13 -2 30 8 37 -5 45 -40 26 -16 -9
-46 -20 -69 -26 -22 -5 -52 -19 -65 -31 -13 -11 -36 -23 -51 -26 -16 -3 -28
-9 -28 -13 0 -5 -15 -11 -32 -15 -78 -17 -203 -57 -232 -74 -17 -11 -51 -25
-76 -31 -24 -7 -53 -18 -64 -26 -11 -8 -44 -14 -72 -14 -37 0 -54 -4 -58 -15
-7 -18 -67 -56 -78 -49 -4 3 -8 16 -8 28 0 22 17 48 87 135 34 42 62 99 63
127 0 40 119 203 214 293 91 87 126 123 126 131 0 10 75 40 101 40 11 0 22 7
26 15 5 14 7 14 23 0 9 -8 20 -12 23 -8 12 12 7 23 -9 23 -13 0 -11 6 10 26
14 15 26 38 26 52 0 23 28 79 57 112 41 48 113 140 113 146 0 6 39 44 46 44 2
0 3 -44 2 -98z m-287 -115 c-10 -9 -11 -8 -5 6 3 10 9 15 12 12 3 -3 0 -11 -7
-18z m539 -77 c0 -5 -4 -10 -10 -10 -5 0 -10 5 -10 10 0 6 5 10 10 10 6 0 10
-4 10 -10z m-4990 -20 c0 -9 -31 -30 -44 -30 -3 0 -6 7 -6 16 0 8 5 12 10 9 6
-3 10 -1 10 4 0 6 7 11 15 11 8 0 15 -4 15 -10z m5009 -37 c0 -34 -1 -36 -11
-16 -6 12 -8 29 -5 37 11 27 17 18 16 -21z m-4587 -19 c8 -7 -21 -64 -33 -64
-6 0 -7 -5 -3 -12 4 -7 3 -8 -4 -4 -18 11 -14 57 6 72 19 15 26 17 34 8z
m-228 -40 c21 -8 21 -54 1 -54 -8 0 -15 4 -15 8 0 5 -11 15 -25 22 -14 7 -25
17 -25 22 0 9 41 11 64 2z m96 -64 c0 -14 56 -13 80 2 10 7 22 10 25 7 9 -9
-6 -40 -16 -33 -5 3 -9 2 -9 -3 0 -11 -92 -3 -107 9 -19 15 -16 28 7 28 11 0
20 -4 20 -10z m3538 -724 c-10 -7 -18 -22 -18 -32 -1 -18 -1 -18 -11 -1 -12
21 4 47 30 47 14 -1 14 -2 -1 -14z"/>
<path d="M6133 5883 c-18 -7 -16 -23 2 -23 8 0 15 7 15 15 0 8 -1 15 -2 14 -2
0 -9 -3 -15 -6z"/>
<path d="M6130 5564 c0 -30 19 -28 31 4 7 18 5 22 -11 22 -15 0 -20 -7 -20
-26z"/>
<path d="M6118 5455 c-3 -14 -1 -25 3 -25 5 0 9 11 9 25 0 14 -2 25 -4 25 -2
0 -6 -11 -8 -25z"/>
<path d="M8538 5993 c12 -2 22 -9 22 -14 0 -6 5 -7 11 -3 15 9 -9 24 -36 22
-17 -1 -17 -1 3 -5z"/>
<path d="M3890 4950 c12 -8 12 -10 1 -10 -11 0 -11 -3 -1 -15 11 -13 15 -13
21 -3 15 23 10 38 -13 38 -19 0 -20 -2 -8 -10z"/>
<path d="M5450 3581 c0 -6 5 -13 10 -16 6 -3 10 1 10 9 0 9 -4 16 -10 16 -5 0
-10 -4 -10 -9z"/>
<path d="M5523 3415 c0 -27 2 -38 4 -22 2 15 2 37 0 50 -2 12 -4 0 -4 -28z"/>
<path d="M5601 3094 c0 -11 3 -14 6 -6 3 7 2 16 -1 19 -3 4 -6 -2 -5 -13z"/>
<path d="M5630 2965 c0 -8 7 -15 15 -15 9 0 12 6 9 15 -4 8 -10 15 -15 15 -5
0 -9 -7 -9 -15z"/>
<path d="M4991 3121 c-14 -26 -14 -91 0 -91 14 0 1 -152 -14 -162 -7 -4 -6
-12 3 -23 8 -9 17 -12 22 -7 11 11 17 292 6 298 -4 3 -12 -4 -17 -15z"/>
<path d="M821 4849 c-23 -19 -23 -20 -5 -34 10 -8 23 -15 27 -15 5 0 1 -7 -7
-16 -9 -8 -16 -20 -16 -25 0 -14 30 -23 41 -12 14 14 65 4 85 -18 15 -16 19
-17 43 -4 56 28 67 101 20 128 -45 25 -156 23 -188 -4z"/>
<path d="M423 3555 c0 -22 2 -30 4 -17 2 12 2 30 0 40 -3 9 -5 -1 -4 -23z"/>
<path d="M451 3554 c0 -11 3 -14 6 -6 3 7 2 16 -1 19 -3 4 -6 -2 -5 -13z"/>
<path d="M548 3434 c6 -3 12 -14 12 -25 0 -23 18 -25 27 -4 7 19 5 21 -27 29
-14 3 -19 3 -12 0z"/>
<path d="M610 3280 c0 -5 5 -10 10 -10 6 0 10 5 10 10 0 6 -4 10 -10 10 -5 0
-10 -4 -10 -10z"/>
<path d="M418 2535 c-4 -93 -4 -276 1 -405 l8 -235 1 163 c2 136 5 166 18 180
15 15 16 14 10 -5 -11 -36 -15 -146 -6 -183 6 -27 8 -10 9 70 1 58 6 112 11
120 7 11 10 -2 10 -42 0 -56 1 -58 26 -58 15 0 34 8 43 19 9 10 33 24 54 32
20 7 37 19 37 26 0 9 16 13 50 13 l50 0 0 40 c0 22 -4 40 -10 40 -21 0 -10 39
13 42 12 2 21 9 20 15 -1 6 7 13 17 16 11 3 20 1 20 -4 0 -5 5 -9 11 -9 8 0 7
5 -1 15 -18 21 -12 24 58 31 34 4 62 10 62 14 0 8 -34 40 -43 40 -4 0 -7 -7
-7 -16 0 -12 -5 -15 -22 -9 -13 4 -49 7 -80 8 -32 0 -58 4 -58 9 0 4 5 8 10 8
6 0 10 18 10 40 0 35 -3 40 -22 40 -40 0 -158 42 -158 56 0 9 -13 14 -37 14
-42 0 -57 7 -65 30 -3 9 -9 -2 -14 -25 l-9 -40 -5 60 c-4 42 -7 10 -12 -110z"/>
<path d="M7310 2550 c-106 -8 -183 -20 -375 -56 -118 -22 -132 -27 -156 -54
-24 -29 -26 -39 -31 -158 -3 -70 -4 -505 -2 -967 l3 -840 26 -22 c31 -27 53
-28 160 -8 267 52 642 78 793 56 102 -15 177 -34 265 -67 37 -14 73 -27 80
-28 6 -2 19 -6 27 -9 100 -38 231 -71 330 -82 96 -11 203 -13 225 -5 l25 10 0
235 c0 228 1 235 20 235 19 0 20 -7 20 -120 0 -73 4 -120 10 -120 6 0 10 113
10 320 0 207 -4 320 -10 320 -5 0 -10 18 -10 40 0 22 5 40 10 40 7 0 10 167
10 480 0 420 -2 480 -15 480 -11 0 -15 11 -15 39 0 44 -9 50 -73 52 -40 1 -40
2 -12 9 l30 8 -30 2 c-16 2 -41 4 -55 5 -45 4 -174 26 -210 37 -19 5 -95 32
-169 60 -269 101 -309 109 -571 113 -118 2 -258 0 -310 -5z m604 -316 c3 -9 6
-30 6 -47 0 -27 7 -36 40 -55 22 -12 40 -28 40 -35 0 -7 -18 -21 -41 -31 -22
-10 -42 -23 -44 -30 -2 -6 -6 -24 -9 -39 -10 -42 -34 -45 -63 -8 -23 30 -30
32 -72 29 -55 -4 -64 15 -30 63 21 30 21 33 5 59 -9 16 -16 38 -16 50 0 21 3
22 53 16 48 -6 55 -5 77 19 27 29 45 32 54 9z m806 -444 c0 -353 0 -360 -20
-360 -20 0 -20 7 -20 280 0 242 2 280 15 280 12 0 15 16 15 80 0 44 2 80 5 80
3 0 5 -162 5 -360z m-1444 253 c8 -10 30 -52 50 -94 l36 -76 60 -7 c34 -3 77
-6 97 -6 43 0 61 -14 61 -48 0 -17 -22 -47 -70 -95 -38 -39 -70 -73 -70 -77 1
-7 14 -60 34 -129 26 -93 -7 -118 -98 -74 -90 44 -96 47 -96 55 0 21 -53 1
-94 -34 -11 -10 -29 -21 -40 -24 -11 -4 -26 -13 -34 -20 -23 -23 -61 -17 -74
12 -9 20 -9 45 3 117 l16 92 -23 20 c-13 11 -35 29 -50 40 -42 31 -77 72 -81
93 -5 33 28 50 122 62 50 7 93 17 97 24 4 6 22 45 39 86 17 41 36 81 41 88 15
18 59 15 74 -5z m844 -55 c25 -18 33 -20 55 -10 60 27 90 7 69 -44 -14 -33
-13 -37 11 -68 38 -50 34 -66 -20 -66 -40 0 -47 -4 -67 -35 -33 -51 -71 -44
-80 15 -2 20 -13 28 -48 40 -57 18 -53 15 -46 37 3 10 20 27 37 37 28 17 30
22 26 62 -6 62 11 71 63 32z m517 -60 c-2 -13 -4 -3 -4 22 0 25 2 35 4 23 2
-13 2 -33 0 -45z m0 -240 c-2 -13 -4 -3 -4 22 0 25 2 35 4 23 2 -13 2 -33 0
-45z m-462 -90 c22 -26 37 -34 74 -38 56 -6 64 -27 27 -71 -20 -24 -24 -35
-16 -49 6 -10 10 -32 10 -49 0 -35 -13 -39 -66 -19 -27 10 -36 8 -66 -10 -43
-27 -61 -17 -57 32 3 33 -1 41 -36 70 -34 29 -38 36 -26 50 7 9 24 16 37 16
22 0 54 23 54 40 0 19 20 60 29 60 5 0 21 -15 36 -32z m462 -230 c-2 -13 -4
-3 -4 22 0 25 2 35 4 23 2 -13 2 -33 0 -45z m-677 -33 c0 -38 32 -78 72 -91
29 -9 17 -37 -25 -57 -31 -14 -38 -23 -43 -58 -9 -54 -29 -60 -66 -20 -16 17
-33 29 -38 26 -12 -8 -79 -10 -86 -3 -3 4 4 24 15 46 l20 40 -20 41 c-26 54
-18 65 40 57 43 -6 49 -4 71 24 35 42 60 40 60 -5z m677 -187 c-2 -24 -4 -5
-4 42 0 47 2 66 4 43 2 -24 2 -62 0 -85z"/>
<path d="M808 2473 c7 -3 16 -2 19 1 4 3 -2 6 -13 5 -11 0 -14 -3 -6 -6z"/>
<path d="M9298 2403 c6 -2 18 -2 25 0 6 3 1 5 -13 5 -14 0 -19 -2 -12 -5z"/>
<path d="M9197 2374 c2 -7 13 -12 24 -11 27 2 24 14 -5 19 -17 3 -23 1 -19 -8z"/>
<path d="M9308 2384 c10 -5 10 -9 1 -20 -8 -10 -7 -24 6 -59 20 -51 34 -58 37
-17 1 26 -2 86 -5 88 -1 1 -13 4 -27 8 -14 3 -19 3 -12 0z"/>
<path d="M9361 2364 c0 -11 3 -14 6 -6 3 7 2 16 -1 19 -3 4 -6 -2 -5 -13z"/>
<path d="M937 2364 c-8 -8 1 -24 14 -24 5 0 9 7 9 15 0 15 -12 20 -23 9z"/>
<path d="M9128 2353 c7 -3 16 -2 19 1 4 3 -2 6 -13 5 -11 0 -14 -3 -6 -6z"/>
<path d="M9040 2270 c0 -5 14 -10 30 -10 17 0 33 0 37 -1 4 0 9 4 11 10 2 7
-12 11 -37 11 -23 0 -41 -4 -41 -10z"/>
<path d="M9344 2216 c-3 -8 -4 -27 -2 -43 3 -23 5 -20 9 15 5 43 2 53 -7 28z"/>
<path d="M9365 1590 c0 -267 1 -376 2 -242 2 133 2 351 0 485 -1 133 -2 24 -2
-243z"/>
<path d="M9383 1990 c0 -47 2 -66 4 -42 2 23 2 61 0 85 -2 23 -4 4 -4 -43z"/>
<path d="M463 1790 c0 -25 2 -35 4 -22 2 12 2 32 0 45 -2 12 -4 2 -4 -23z"/>
<path d="M720 1635 c0 -16 16 -20 24 -6 3 5 -1 11 -9 15 -9 3 -15 0 -15 -9z"/>
<path d="M780 1590 c0 -5 5 -10 10 -10 6 0 10 5 10 10 0 6 -4 10 -10 10 -5 0
-10 -4 -10 -10z"/>
<path d="M424 1495 c0 -49 1 -71 3 -48 2 23 2 64 0 90 -2 26 -3 8 -3 -42z"/>
<path d="M448 1473 c-2 -32 -1 -62 4 -67 4 -6 8 20 8 57 0 37 -2 67 -4 67 -2
0 -6 -26 -8 -57z"/>
<path d="M480 1462 c0 -26 3 -28 40 -30 29 -2 40 1 40 12 0 7 8 17 18 21 16 7
15 8 -3 15 -11 5 -37 9 -57 9 -35 1 -38 -1 -38 -27z"/>
<path d="M9383 1350 c0 -47 2 -66 4 -42 2 23 2 61 0 85 -2 23 -4 4 -4 -43z"/>
<path d="M476 1385 c-3 -8 -1 -15 4 -15 6 0 10 7 10 15 0 8 -2 15 -4 15 -2 0
-6 -7 -10 -15z"/>
<path d="M421 1374 c0 -11 3 -14 6 -6 3 7 2 16 -1 19 -3 4 -6 -2 -5 -13z"/>
<path d="M475 1340 c4 -6 11 -8 16 -5 14 9 11 15 -7 15 -8 0 -12 -5 -9 -10z"/>
<path d="M431 1284 c0 -11 3 -14 6 -6 3 7 2 16 -1 19 -3 4 -6 -2 -5 -13z"/>
<path d="M9280 750 c0 -22 2 -40 4 -40 2 0 6 18 8 40 2 22 0 40 -4 40 -5 0 -8
-18 -8 -40z"/>
<path d="M9343 750 c0 -25 2 -35 4 -22 2 12 2 32 0 45 -2 12 -4 2 -4 -23z"/>
<path d="M1750 668 c0 -102 -13 -198 -26 -198 -8 0 -14 9 -14 20 0 11 -5 20
-11 20 -6 0 -13 -9 -16 -20 -3 -11 -10 -20 -16 -20 -6 0 -7 -3 -3 -7 4 -4 21
-7 39 -7 28 1 28 0 5 -3 -29 -4 -39 -23 -13 -23 7 0 18 -7 23 -16 5 -9 18 -14
33 -12 27 3 27 2 16 202 -6 101 -17 144 -17 64z"/>
<path d="M1121 547 c-6 -15 -15 -27 -21 -27 -5 0 -10 -7 -10 -15 0 -8 7 -15
15 -15 8 0 15 5 15 12 0 6 7 19 14 27 10 11 12 21 6 31 -7 11 -11 9 -19 -13z"/>
<path d="M1004 506 c23 -18 36 -20 36 -6 0 6 -4 10 -9 10 -5 0 -18 3 -28 6
-16 5 -16 4 1 -10z"/>
<path d="M1183 509 c-27 -10 -30 -36 -5 -42 9 -2 -1 -3 -23 -1 -30 2 -35 1
-20 -6 11 -5 16 -9 10 -10 -12 -2 75 -30 93 -30 7 0 10 5 7 10 -3 6 -21 10
-38 11 -29 0 -30 1 -9 9 39 16 24 74 -15 59z"/>
<path d="M8720 395 c0 -43 4 -75 10 -75 6 0 10 32 10 75 0 43 -4 75 -10 75 -6
0 -10 -32 -10 -75z"/>
<path d="M9320 450 c0 -12 -7 -20 -16 -20 -8 0 -22 -6 -30 -14 -12 -13 -9 -16
22 -26 19 -7 38 -9 41 -6 4 3 -1 6 -10 6 -9 0 -17 5 -17 11 0 5 4 8 9 5 5 -3
14 1 21 9 6 7 18 11 26 8 10 -4 14 3 13 23 0 25 -1 26 -9 9 -7 -17 -9 -17 -9
-2 -1 25 -41 23 -41 -3z"/>
<path d="M9265 370 c-3 -5 -2 -10 4 -10 5 0 13 5 16 10 3 6 2 10 -4 10 -5 0
-13 -4 -16 -10z"/>
<path d="M9118 353 c7 -3 16 -2 19 1 4 3 -2 6 -13 5 -11 0 -14 -3 -6 -6z"/>
<path d="M9228 353 c7 -3 16 -2 19 1 4 3 -2 6 -13 5 -11 0 -14 -3 -6 -6z"/>
</g>
</svg>
